<?xml version="1.0" encoding="UTF-8" standalone="no"?><!DOCTYPE svg PUBLIC "-//W3C//DTD SVG 1.1//EN" "http://www.w3.org/Graphics/SVG/1.1/DTD/svg11.dtd"><svg width="100%" height="100%" viewBox="0 0 347 347" version="1.1" xmlns="http://www.w3.org/2000/svg" xmlns:xlink="http://www.w3.org/1999/xlink" xml:space="preserve" xmlns:serif="http://www.serif.com/" style="fill-rule:evenodd;clip-rule:evenodd;stroke-linejoin:round;stroke-miterlimit:2;"><path d="M297.8,0l-249.013,0c-12.937,0 -25.358,5.142 -34.5,14.288c-9.145,9.141 -14.287,21.562 -14.287,34.5l-0,249.012c-0,12.933 5.142,25.354 14.287,34.5c9.142,9.146 21.563,14.283 34.5,14.283l113.321,0l0,-126.5l-42.841,0l-0,-49.346l42.841,0l0,-36.354c0,-20.6 5.7,-36.608 17.1,-47.983c11.384,-11.383 26.834,-17.113 46.359,-17.113c19.525,0 32.187,0.763 37.962,2.196l0,43.934l-26.029,-0c-9.404,-0 -15.825,1.983 -19.254,5.975c-3.434,3.962 -5.142,9.95 -5.142,17.887l0,31.458l48.8,0l-6.487,49.346l-42.313,0l0,126.5l84.696,0c12.933,0 25.354,-5.137 34.5,-14.283c9.146,-9.146 14.283,-21.567 14.283,-34.5l0,-249.013c0,-12.937 -5.137,-25.358 -14.283,-34.5c-9.146,-9.145 -21.567,-14.287 -34.5,-14.287Z" style="fill:#f9f9f9;fill-rule:nonzero;"/></svg>