<?xml version="1.0" encoding="UTF-8" standalone="no"?><!DOCTYPE svg PUBLIC "-//W3C//DTD SVG 1.1//EN" "http://www.w3.org/Graphics/SVG/1.1/DTD/svg11.dtd"><svg width="100%" height="100%" viewBox="0 0 348 348" version="1.1" xmlns="http://www.w3.org/2000/svg" xmlns:xlink="http://www.w3.org/1999/xlink" xml:space="preserve" xmlns:serif="http://www.serif.com/" style="fill-rule:evenodd;clip-rule:evenodd;stroke-linejoin:round;stroke-miterlimit:2;"><g><path d="M173.792,83.392c-49.054,-0 -89.7,39.941 -89.7,89.7c-0,49.754 39.946,89.7 89.7,89.7c49.754,-0 89.696,-40.646 89.696,-89.7c-0,-49.054 -40.642,-89.7 -89.696,-89.7Zm-0,147.158c-31.538,-0 -57.467,-25.929 -57.467,-57.458c0,-31.538 25.929,-57.463 57.467,-57.463c31.533,0 57.462,25.925 57.462,57.463c0,31.529 -25.929,57.458 -57.462,57.458Z" style="fill:#f9f9f9;fill-rule:nonzero;"/><circle cx="266.996" cy="81.288" r="20.321" style="fill:#f9f9f9;"/><path d="M319.55,28.733c-18.221,-18.921 -44.15,-28.733 -73.579,-28.733l-144.363,0c-60.962,0 -101.608,40.646 -101.608,101.608l0,143.663c0,30.129 9.813,56.058 29.429,74.979c18.921,18.221 44.154,27.329 72.884,27.329l142.958,0c30.129,0 55.358,-9.804 73.575,-27.329c18.929,-18.217 28.733,-44.146 28.733,-74.279l0,-144.363c0,-29.429 -9.804,-54.658 -28.029,-72.875Zm-2.804,217.238c-0,21.721 -7.704,39.241 -20.321,51.154c-12.617,11.917 -30.133,18.221 -51.154,18.221l-142.959,-0c-21.025,-0 -38.541,-6.304 -51.158,-18.221c-12.608,-12.612 -18.921,-30.129 -18.921,-51.854l0,-143.663c0,-21.016 6.313,-38.537 18.921,-51.154c11.917,-11.908 30.133,-18.221 51.158,-18.221l144.363,0c21.017,0 38.537,6.313 51.154,18.921c11.908,12.617 18.917,30.134 18.917,50.454l-0,144.363Z" style="fill:#f9f9f9;fill-rule:nonzero;"/></g></svg>